<svg xmlns="http://www.w3.org/2000/svg" xmlns:xlink="http://www.w3.org/1999/xlink" width="2000" zoomAndPan="magnify" viewBox="0 0 1500 1499.999933" height="2000" preserveAspectRatio="xMidYMid meet" version="1.0"><defs><g/></defs><g fill="#ffffff" fill-opacity="1"><g transform="translate(346.646487, 925.1249)"><g><path d="M 158.832031 -337.9375 L 163.65625 -330.214844 L 127.449219 -161.246094 L 72.898438 -161.246094 L 110.554688 -337.9375 L 38.621094 -337.9375 L 43.449219 -330.214844 L 11.585938 -178.625 C 3.378906 -141.933594 31.378906 -107.65625 69.035156 -107.65625 L 116.347656 -107.65625 L 113.449219 -94.621094 C 108.140625 -70.484375 87.382812 -53.585938 62.761719 -53.585938 L -15.449219 -53.585938 L -26.550781 0.484375 L 81.105469 0.484375 C 126.484375 0.484375 165.589844 -31.378906 174.761719 -75.792969 L 230.28125 -337.9375 Z M 158.832031 -337.9375 "/></g></g></g><g fill="#ffffff" fill-opacity="1"><g transform="translate(546.994615, 925.1249)"><g><path d="M 192.625 -337.9375 L 91.726562 -337.9375 C 63.726562 -337.9375 39.585938 -318.625 33.792969 -291.109375 L 16.898438 -211.933594 C 13.035156 -193.589844 27.035156 -176.210938 45.863281 -176.210938 L 147.242188 -176.210938 C 174.761719 -176.210938 198.898438 -195.519531 204.695312 -223.039062 L 221.589844 -302.210938 C 225.453125 -320.558594 211.453125 -337.9375 192.625 -337.9375 Z M 140.96875 -230.28125 L 86.414062 -230.28125 L 98 -283.867188 L 152.070312 -283.867188 Z M 191.660156 -161.246094 L 119.726562 -161.246094 L 124.554688 -154.003906 L 118.277344 -125.035156 C 116.347656 -114.898438 107.175781 -107.65625 96.554688 -107.65625 L 60.347656 -107.65625 L 71.933594 -161.246094 L 0 -161.246094 L 4.828125 -154.003906 L -28 0.484375 L 43.933594 0.484375 L 39.105469 -7.242188 L 49.726562 -58.414062 L 79.175781 -13.035156 C 84.96875 -4.828125 94.140625 0.484375 103.796875 0.484375 L 162.691406 0.484375 L 115.382812 -68.554688 L 124.070312 -68.554688 C 152.070312 -68.554688 176.210938 -87.863281 182.003906 -114.898438 Z M 191.660156 -161.246094 "/></g></g></g><g fill="#ffffff" fill-opacity="1"><g transform="translate(752.65317, 925.1249)"><g><path d="M 228.832031 -330.214844 L 236.554688 -337.9375 L 104.761719 -337.9375 C 70 -337.9375 40.070312 -313.316406 32.828125 -279.523438 L -26.070312 -3.863281 C -27.519531 3.378906 -29.449219 9.171875 -32.828125 12.070312 C -35.242188 14 -38.136719 15.449219 -42 15.449219 L -49.726562 15.449219 L -0.484375 68.070312 C 28.964844 46.828125 34.277344 22.207031 38.621094 0.484375 C 39.105469 -1.449219 75.792969 -176.210938 75.792969 -176.210938 L 119.726562 -176.210938 L 130.828125 -229.796875 L 87.382812 -229.796875 L 98.96875 -283.867188 L 153.039062 -283.867188 L 94.140625 -7.242188 L 86.414062 0 L 158.347656 0 Z M 228.832031 -330.214844 "/></g></g></g><g fill="#ffffff" fill-opacity="1"><g transform="translate(953.9669, 925.1249)"><g><path d="M 40.550781 -337.9375 L 28.964844 -283.867188 L 27.035156 -275.175781 L 35.726562 -283.867188 L 89.3125 -283.867188 L 40.070312 -53.585938 L -13.035156 -53.585938 L -17.863281 -62.277344 L -19.792969 -53.585938 L -30.898438 0 L 154.003906 0 L 159.3125 -23.171875 L 165.589844 -53.585938 L 167.519531 -62.277344 L 158.832031 -53.585938 L 105.726562 -53.585938 L 154.484375 -283.867188 L 207.589844 -283.867188 L 212.417969 -275.175781 L 214.347656 -283.867188 L 225.933594 -337.9375 Z M 40.550781 -337.9375 "/></g></g></g></svg>